# xmcd
#
# Track frame offsets:
#  150
#  19630
#  42172
#  56617
#  72130
#  96112
#  113287
#  129654
#  148650
#  161010
#  174195
#  226845
#  248652
#  264140
#  276522
#  287847
#  303897
#
# Disc length: 4273 seconds
#
# Revision: 2
# Processed by: cddbd v1.5.1PL0 Copyright (c) Steve Scherf et al.
# Submitted via: Collectorz.com_Music_Collector 6.9
#
DISCID=dd10af11
DTITLE=Willie Lomax Blues Revue - Give Me Back My Teeth
DYEAR=1996
DGENRE=Blues -  Blues Electric
TTITLE0=Where I've Been
TTITLE1=Blues for Peewee
TTITLE2=Mojo Man
TTITLE3=Crumblin' Down
TTITLE4=Lonely With the One You Love
TTITLE5=Long Day Blues
TTITLE6=Give Me Back My Teeth
TTITLE7=Cow Cow Boogie (Moo Moo My Love)
TTITLE8=Way a Tree Falls
TTITLE9=Pretty Baby Blues
TTITLE10=Blues for Jackie Robinson: Medley
TTITLE11=King Biscuit Blues
TTITLE12=Crumblin' Down [Alternate Mix]
TTITLE13=Razorback
TTITLE14=Diamond Teeth Mary - Keep Your Hands Off of Him
TTITLE15=Blind Willie James - Down the Road
TTITLE16=14 Buffalo - Hissy Fit
EXTD=
EXTT0=
EXTT1=
EXTT2=
EXTT3=
EXTT4=
EXTT5=
EXTT6=
EXTT7=
EXTT8=
EXTT9=
EXTT10=
EXTT11=
EXTT12=
EXTT13=
EXTT14=
EXTT15=
EXTT16=
PLAYORDER=
